<?xml version="1.0" encoding="utf-8"?>
<!-- Generator: Adobe Illustrator 23.0.6, SVG Export Plug-In . SVG Version: 6.00 Build 0)  -->
<svg version="1.1" xmlns="http://www.w3.org/2000/svg" xmlns:xlink="http://www.w3.org/1999/xlink" x="0px" y="0px"
	 viewBox="0 0 153 37" style="enable-background:new 0 0 153 37;" xml:space="preserve">
<style type="text/css">
	.st0{enable-background:new    ;}
	.st1{fill-rule:evenodd;clip-rule:evenodd;}
	.st2{fill-rule:evenodd;clip-rule:evenodd;fill:#157F64;}
</style>
<g id="funi___ox_1_" class="st0">
	<g id="funi___ox">
		<g>
			<path class="st1" d="M18.8,10.4h-10c-3.6,0-5.6,1.7-5.6,5v1.8H1.4c-0.3,0-0.5,0.2-0.5,0.5v2.6c0,0.3,0.2,0.5,0.5,0.5h1.8v11.1
				c0,0.3,0.2,0.4,0.5,0.4h3.4c0.3,0,0.5-0.1,0.5-0.4V20.6h10.8c0.3,0,0.5-0.1,0.5-0.5v-2.6c0-0.3-0.2-0.5-0.5-0.5H7.6v-1.8
				c0-1,0.5-1.4,1.2-1.4h10c0.3,0,0.5-0.2,0.5-0.5v-2.7C19.3,10.5,19.2,10.4,18.8,10.4z M43.9,17.2h-3.4c-0.3,0-0.5,0.2-0.5,0.5
				v10.1c-0.4,0.5-1.4,1.1-2.9,1.1h-8.6c-1,0-1.8-0.4-1.8-1.4v-9.8c0-0.3-0.2-0.5-0.5-0.5h-3.4c-0.3,0-0.5,0.2-0.5,0.5V27
				c0,3.1,1.3,5.3,5,5.3h8.4c2.5,0,3.8-1.1,4.3-1.9v1.3c0,0.3,0.2,0.4,0.5,0.4h3.4c0.3,0,0.5-0.1,0.5-0.4V17.6
				C44.4,17.3,44.3,17.2,43.9,17.2z M65.4,17h-8.4c-2.5,0-3.8,1.1-4.3,1.9v-1.3c0-0.3-0.2-0.5-0.5-0.5h-3.4c-0.3,0-0.5,0.2-0.5,0.5
				v14.1c0,0.3,0.2,0.4,0.5,0.4h3.4c0.3,0,0.5-0.1,0.5-0.4V21.6c0.4-0.5,1.4-1.1,2.9-1.1h8.6c1,0,1.8,0.4,1.8,1.4v9.8
				c0,0.3,0.2,0.4,0.5,0.4h3.4c0.3,0,0.5-0.1,0.5-0.4v-9.4C70.4,19.2,69.1,17,65.4,17z M78.4,17.2H75c-0.3,0-0.5,0.2-0.5,0.5v14.1
				c0,0.3,0.2,0.4,0.5,0.4h3.4c0.3,0,0.5-0.1,0.5-0.4V17.6C78.9,17.3,78.7,17.2,78.4,17.2z M78.4,11.2H75c-0.3,0-0.5,0.2-0.5,0.5
				v2.9c0,0.3,0.2,0.5,0.5,0.5h3.4c0.3,0,0.5-0.2,0.5-0.5v-2.9C78.9,11.3,78.7,11.2,78.4,11.2z M122.2,17h-10c-3.8,0-6,2.3-6,5.4V27
				c0,3.2,2.2,5.3,6,5.3h10c3.8,0,6-2.2,6-5.3v-4.5C128.2,19.3,126.1,17,122.2,17z M123.8,27.4c0,1.1-0.7,1.5-1.6,1.5h-10
				c-0.9,0-1.6-0.4-1.6-1.5v-5.5c0-1.1,0.7-1.4,1.6-1.4h10c0.9,0,1.6,0.4,1.6,1.4V27.4z M144.8,24.7l8-6.9c0.3-0.3,0.1-0.6-0.3-0.6
				h-4.3c-0.3,0-0.6,0.1-1.1,0.5l-5.2,4.5l-5.2-4.5c-0.5-0.4-0.8-0.5-1.1-0.5h-4.3c-0.4,0-0.6,0.3-0.3,0.6l8,6.9l-8,6.9
				c-0.4,0.3-0.1,0.6,0.3,0.6h4.3c0.3,0,0.6-0.1,1.1-0.5l5.2-4.4l5.1,4.4c0.5,0.4,0.8,0.5,1.1,0.5h4.3c0.4,0,0.7-0.3,0.3-0.6
				L144.8,24.7z"/>
		</g>
	</g>
</g>
<g id="Shape_28_1_" class="st0">
	<g id="Shape_28">
		<g>
			<path d="M95,15c-1,0-3.1,0-4,0l5.6,2.9c2,1,3.4,2.8,3.4,4.9c0,3.2-3.1,5.8-7,5.8c-3.8,0-7-2.5-7-5.7c0-1.2,0.3-2.1,1-3l-3-2
				c-1.1,1.4-2,3.2-2,5c0,3.6,3.3,7.5,7,9l4,5l4-5c3.7-1.5,7-5.8,7-9C104,19.2,100.8,15,95,15z"/>
		</g>
	</g>
</g>
<g id="Shape_28_copy_1_" class="st0">
	<g id="Shape_28_copy">
		<g>
			<path class="st2" d="M98.9,1c-1.5-0.7-3-1-4.7-1c-1.6,0-3,0.3-4.4,0.9c-1.3,0.6-2.4,1.4-3.1,2.5c-0.7,1.1-1.1,2.2-1.1,3.5
				c0,1.6,0.6,3.1,1.9,4.5c0.4,0.5,0.5,0.6,1.6,1.6c1.1,0,2.8,0,4,0c0.7,0,2.9,0,3,0c-2.1-1.3-4.1-2.1-4.5-2.4
				c-0.9-0.7-1.4-1.4-1.8-2c-0.3-0.6-0.5-1.2-0.5-1.9c0-1.1,0.5-1.9,1.4-2.7C91.5,3.4,92.6,3,94,3c1.1,0,2.2,0.3,3.2,0.7
				c0.9,0.5,2.5,1.8,3.8,3.3l2.5-2.2C101.9,3,100.3,1.7,98.9,1z M93,19.8c-1.9,0-3.5,1.3-3.5,2.9c0,1.6,1.6,2.9,3.5,2.9
				c1.9,0,3.5-1.3,3.5-2.9C96.5,21.1,94.9,19.8,93,19.8z"/>
		</g>
	</g>
</g>
</svg>
